<svg width="45" height="33" viewBox="0 0 45 33" fill="none" xmlns="http://www.w3.org/2000/svg">
<path d="M40.6708 0H3.84109C1.72308 0 0 1.72437 0 3.84475V14.5741C0 16.6942 1.72308 18.4188 3.84109 18.4188H19.9538V29.163H21.4888V18.4188H23.0237V29.163H24.5587V18.4188H40.6714C42.7894 18.4188 44.5123 16.6942 44.5123 14.5741V3.84475C44.5119 1.72437 42.7888 0 40.6708 0ZM42.9769 14.5739C42.9769 15.8471 41.9423 16.8836 40.6708 16.8836H3.84109C2.56955 16.8836 1.53497 15.8471 1.53497 14.5739V3.84475C1.53497 2.57149 2.56955 1.53497 3.84109 1.53497H40.6708C41.9423 1.53497 42.9769 2.57149 42.9769 3.84475V14.5739Z" fill="black"/>
<path d="M36.0809 13.0465H7.67444V14.5815H36.0809V13.0465Z" fill="black"/>
<path d="M39.9071 10.7443H4.60461V12.2792H39.9071V10.7443Z" fill="black"/>
<path d="M33.0002 28.3953C32.5764 28.3953 32.2327 28.7385 32.2327 29.1627C32.2327 30.4324 31.1999 31.465 29.9305 31.465C28.6609 31.465 27.6282 30.4321 27.6282 29.1627V20.7208H26.0933V29.1627C26.0933 31.2784 27.8148 33 29.9305 33C32.0461 33 33.7677 31.2784 33.7677 29.1627C33.7677 28.7385 33.424 28.3953 33.0002 28.3953Z" fill="black"/>
<path d="M16.8838 29.1627C16.8838 30.4324 15.851 31.465 14.5816 31.465C13.3122 31.465 12.2794 30.4321 12.2794 29.1627C12.2794 28.7385 11.9356 28.3953 11.5119 28.3953C11.0881 28.3953 10.7444 28.7385 10.7444 29.1627C10.7444 31.2784 12.466 33 14.5816 33C16.6972 33 18.4188 31.2784 18.4188 29.1627V20.7208H16.8838V29.1627V29.1627Z" fill="black"/>
</svg>
