<svg width="32" height="32" viewBox="0 0 32 32" fill="none" xmlns="http://www.w3.org/2000/svg">
<g id="ic-History Ketinggian Air">
<path id="Vector 8" d="M6.09839 11.6885V23C6.09839 27.4183 9.68011 31 14.0984 31H23C27.4183 31 31 27.4183 31 23V17.825V14.0984C31 9.68008 27.4183 6.09836 23 6.09836H11.4345" stroke="#90A7AE" stroke-width="2" stroke-linecap="round" stroke-linejoin="round"/>
<g id="history air">
<circle id="Ellipse 25" cx="4.65014" cy="5.42502" r="3.875" fill="#DCEDB9"/>
<circle id="Ellipse 23" cx="6.09836" cy="6.09836" r="5.09836" stroke="#90A7AE" stroke-width="2"/>
<path id="Rectangle 24" d="M6.09839 3.55737V6.60655H8.13117" stroke="#90A7AE" stroke-width="2" stroke-linecap="round" stroke-linejoin="round"/>
</g>
<path id="Ellipse 25_2" d="M20.1499 18.831C20.1499 20.4155 18.762 21.7 17.0499 21.7C15.3379 21.7 13.95 20.4155 13.95 18.831C13.95 17.2465 17.0499 13.95 17.0499 13.95C17.0499 13.95 20.1499 17.2465 20.1499 18.831Z" fill="#DCEDB9"/>
<path id="Ellipse 24" d="M22.25 17.8846C22.25 19.7821 20.5319 21.475 18.2125 21.475C15.8932 21.475 14.175 19.7821 14.175 17.8846C14.175 17.5217 14.3773 16.9076 14.8365 16.0801C15.2748 15.2904 15.8713 14.4376 16.4861 13.6392C17.0979 12.8447 17.7121 12.1242 18.1746 11.6012C18.1873 11.5867 18.2 11.5724 18.2125 11.5583C18.2251 11.5724 18.2377 11.5867 18.2505 11.6012C18.713 12.1242 19.3272 12.8447 19.939 13.6392C20.5538 14.4376 21.1503 15.2904 21.5886 16.0801C22.0478 16.9076 22.25 17.5217 22.25 17.8846Z" stroke="#90A7AE" stroke-width="2"/>
<path id="Vector 17" d="M14.7249 24.8H22.0873" stroke="#90A7AE" stroke-width="2" stroke-linecap="round" stroke-linejoin="round"/>
</g>
</svg>
