<svg width="27" height="27" viewBox="0 0 27 27" fill="none" xmlns="http://www.w3.org/2000/svg">
<g id="ic-rthigh">
<path id="ic-rec" d="M18 26H9C4.58172 26 1 22.4183 1 18V9C1 4.58172 4.58172 1 9 1H18C22.4183 1 26 4.58172 26 9V12.773V18C26 22.4183 22.4183 26 18 26Z" stroke="white" stroke-width="2" stroke-linecap="round" stroke-linejoin="round"/>
<path id="color-g" d="M14.75 13.2236C14.75 14.7569 13.3509 16 11.625 16C9.89911 16 8.5 14.7569 8.5 13.2236C8.5 11.6902 11.625 8.5 11.625 8.5C11.625 8.5 14.75 11.6902 14.75 13.2236Z" fill="#DCEDB9"/>
<path id="ic-water" d="M17.2193 12.8328C17.2193 14.7403 15.4922 16.4414 13.1619 16.4414C10.8315 16.4414 9.10449 14.7403 9.10449 12.8328C9.10449 12.4675 9.30795 11.8502 9.76909 11.0192C10.2092 10.2262 10.8082 9.36987 11.4255 8.56825C12.0398 7.77048 12.6565 7.04706 13.1208 6.52194C13.1346 6.50629 13.1483 6.49083 13.1619 6.47555C13.1754 6.49083 13.1891 6.50629 13.203 6.52194C13.6673 7.04706 14.284 7.77048 14.8983 8.56825C15.5155 9.36987 16.1146 10.2262 16.5547 11.0192C17.0158 11.8502 17.2193 12.4675 17.2193 12.8328Z" stroke="white" stroke-width="2"/>
<path id="ic-line" d="M9.66064 19.7755H17.0522" stroke="white" stroke-width="2" stroke-linecap="round" stroke-linejoin="round"/>
</g>
</svg>
