<svg width="42" height="40" viewBox="0 0 42 40" fill="none" xmlns="http://www.w3.org/2000/svg">
<path id="path2841" d="M8.38074 0.606567L5.52058 2.21494L8.75202 7.67005C3.45713 11.3272 0 17.341 0 24.1503V37.9981L1.65099 39.6065H39.8097L41.4607 37.9981V24.1503C41.4607 17.34 38.003 11.3254 32.7068 7.66838L35.9393 2.21573L33.0823 0.607353L29.8707 6.02093C27.1135 4.70033 24.0123 3.95625 20.7302 3.95625C17.4477 3.95625 14.3459 4.7007 11.5882 6.02182L8.38074 0.606567ZM20.7302 7.173C29.4395 7.173 36.5768 13.2769 37.9257 21.3674C36.8948 20.8833 36.0303 20.087 35.4767 19.07L32.5577 19.0748C31.6122 20.8202 29.7591 21.9088 27.7333 21.9092C25.7076 21.9092 23.8578 20.8201 22.9123 19.0748H19.9899C19.0441 20.8201 17.1946 21.9089 15.1687 21.9092C13.1429 21.9092 11.2898 20.8201 10.3444 19.0748H7.42513C6.61671 20.5668 5.14431 21.5762 3.46868 21.8385C4.61494 13.5162 11.8572 7.17535 20.7339 7.17535L20.7302 7.173ZM15.7897 13.0014C15.385 12.9493 14.9736 13.0154 14.6074 13.1911C14.2412 13.3669 13.9368 13.6446 13.7326 13.9889C13.597 14.2176 13.509 14.4701 13.4736 14.732C13.4382 14.9938 13.456 15.2599 13.5262 15.515C13.5964 15.7701 13.7177 16.0093 13.8828 16.2188C14.0479 16.4283 14.2536 16.604 14.4885 16.736C14.9626 17.0025 15.5261 17.0747 16.0548 16.9365C16.5835 16.7984 17.0341 16.4614 17.3077 15.9996C17.5814 15.5378 17.6557 14.9891 17.5141 14.4741C17.3725 13.9591 17.0266 13.52 16.5527 13.2533C16.3178 13.1213 16.0585 13.0357 15.7897 13.0014ZM27.1599 13.0014C26.7551 12.9493 26.3437 13.0154 25.9775 13.1911C25.6113 13.3669 25.3067 13.6446 25.1025 13.9889C24.9669 14.2176 24.8789 14.4701 24.8435 14.732C24.8081 14.9938 24.8261 15.2599 24.8963 15.515C24.9665 15.7701 25.0876 16.0093 25.2527 16.2188C25.4178 16.4283 25.6237 16.604 25.8586 16.736C26.3327 17.0025 26.896 17.0747 27.4247 16.9365C27.9534 16.7984 28.4042 16.4614 28.6778 15.9996C28.9515 15.5378 29.0256 14.9891 28.884 14.4741C28.7424 13.9591 28.3965 13.5199 27.9226 13.2533C27.6878 13.1214 27.4286 13.0357 27.1599 13.0014ZM21.4538 22.0798C23.0925 23.8489 25.2267 25.1236 27.7365 25.1236C30.2335 25.1236 32.3555 23.8578 33.9928 22.1047C35.1452 23.3458 36.5396 24.3479 38.1585 24.8178V28.761C37.0221 28.2916 36.0614 27.4622 35.4656 26.368L32.5532 26.3728C31.6076 28.1182 29.7573 29.2059 27.7315 29.2064C25.7058 29.2064 23.8524 28.1182 22.9069 26.3728H19.9889C19.0432 28.1182 17.1902 29.2061 15.1643 29.2064C13.1386 29.2064 11.2848 28.1182 10.3391 26.3728H7.4209C6.58622 27.9129 5.04482 28.94 3.30199 29.1607V25.0886C5.50947 24.8773 7.4026 23.6848 8.88686 22.0838C10.5253 23.8519 12.663 25.1252 15.172 25.1252C17.6816 25.1248 19.8154 23.8504 21.4538 22.0813V22.0798ZM8.87477 29.3777C10.5132 31.146 12.6485 32.4216 15.1577 32.4216C17.6665 32.4213 19.8017 31.1458 21.4401 29.3777C23.0786 31.1469 25.2155 32.4216 27.7254 32.4216C30.2237 32.4216 32.3476 31.1547 33.9851 29.4002C35.14 30.6447 36.536 31.6474 38.1585 32.1157V36.3897H3.30199V32.3834C5.50468 32.1681 7.39381 30.9767 8.87477 29.3777Z" fill="white"/>
</svg>
