<svg width="31" height="30" viewBox="0 0 31 30" fill="none" xmlns="http://www.w3.org/2000/svg">
<g id="calendar_today_24px">
<path id="icon/action/calendar_today_24px" fill-rule="evenodd" clip-rule="evenodd" d="M24.6909 3.75H25.9409C27.3159 3.75 28.4409 4.875 28.4409 6.25V26.25C28.4409 27.625 27.3159 28.75 25.9409 28.75H5.94092C4.56592 28.75 3.44092 27.625 3.44092 26.25V6.25C3.44092 4.875 4.56592 3.75 5.94092 3.75H7.19092V2.5C7.19092 1.8125 7.75342 1.25 8.44092 1.25C9.12842 1.25 9.69092 1.8125 9.69092 2.5V3.75H22.1909V2.5C22.1909 1.8125 22.7534 1.25 23.4409 1.25C24.1284 1.25 24.6909 1.8125 24.6909 2.5V3.75ZM7.19092 26.25H24.6909C25.3784 26.25 25.9409 25.6875 25.9409 25V10H5.94092V25C5.94092 25.6875 6.50342 26.25 7.19092 26.25Z" fill="#5D5D5D"/>
</g>
</svg>
