<svg width="30" height="30" viewBox="0 0 30 30" fill="none" xmlns="http://www.w3.org/2000/svg">
<g id="build_24px">
<path id="icon/action/build_24px" d="M15.5914 4.05883C13.0789 1.54633 9.31645 1.03383 6.29145 2.50883L10.8289 7.04633C11.3164 7.53383 11.3164 8.32133 10.8289 8.80883L8.84145 10.7963C8.35395 11.2963 7.56645 11.2963 7.07895 10.7963L2.54145 6.25883C1.07895 9.29633 1.59145 13.0338 4.10395 15.5463C6.42895 17.8713 9.82895 18.4838 12.7164 17.3963L22.6664 27.3463C23.9539 28.6338 26.0289 28.6338 27.3039 27.3463C28.5914 26.0588 28.5914 23.9838 27.3039 22.7088L17.4039 12.7963C18.5539 9.87133 17.9539 6.42133 15.5914 4.05883Z" fill="#5D5D5D"/>
</g>
</svg>
