<svg width="34" height="35" viewBox="0 0 34 35" fill="none" xmlns="http://www.w3.org/2000/svg">
<g id="poll_24px">
<path id="icon/social/poll_24px" fill-rule="evenodd" clip-rule="evenodd" d="M7.08333 4.75H26.9167C28.475 4.75 29.75 6.025 29.75 7.58333V27.4167C29.75 28.975 28.475 30.25 26.9167 30.25H7.08333C5.525 30.25 4.25 28.975 4.25 27.4167V7.58333C4.25 6.025 5.525 4.75 7.08333 4.75ZM9.91667 23.1667C9.91667 23.9458 10.5542 24.5833 11.3333 24.5833C12.1125 24.5833 12.75 23.9458 12.75 23.1667V16.0833C12.75 15.3042 12.1125 14.6667 11.3333 14.6667C10.5542 14.6667 9.91667 15.3042 9.91667 16.0833V23.1667ZM17 24.5833C16.2208 24.5833 15.5833 23.9458 15.5833 23.1667V11.8333C15.5833 11.0542 16.2208 10.4167 17 10.4167C17.7792 10.4167 18.4167 11.0542 18.4167 11.8333V23.1667C18.4167 23.9458 17.7792 24.5833 17 24.5833ZM21.25 23.1667C21.25 23.9458 21.8875 24.5833 22.6667 24.5833C23.4458 24.5833 24.0833 23.9458 24.0833 23.1667V20.3333C24.0833 19.5542 23.4458 18.9167 22.6667 18.9167C21.8875 18.9167 21.25 19.5542 21.25 20.3333V23.1667Z" fill="#5D5D5D"/>
</g>
</svg>
